<svg width="1024" height="1024" viewBox="0 0 1024 1024" fill="none" xmlns="http://www.w3.org/2000/svg">
<path fill-rule="evenodd" clip-rule="evenodd" d="M512 224C671.058 224 800 352.942 800 512C800 671.058 671.058 800 512 800C352.942 800 224 671.058 224 512H32C32 777.097 246.903 992 512 992C777.097 992 992 777.097 992 512C992 246.903 777.097 32 512 32V224Z" fill="#008F8E"/>
<path d="M256 64L307.857 204.143L448 256L307.857 307.857L256 448L204.143 307.857L64 256L204.143 204.143L256 64Z" fill="#FF6F4F"/>
</svg>
