<svg width="21" height="22" viewBox="0 0 21 22" fill="none" xmlns="http://www.w3.org/2000/svg">
<path d="M18.0757 3.86368C16.1883 1.97319 13.6774 0.929896 11.0032 0.926758C5.48945 0.926758 1.00171 5.41606 1.00171 10.9314C0.998575 12.6901 1.46296 14.4135 2.33603 15.929L0.916992 21.1118L6.21819 19.7194C7.67645 20.518 9.32375 20.9361 10.9985 20.9361H11.0032C16.5154 20.9361 20.9985 16.4515 21 10.9377C21.004 8.26669 19.9622 5.75259 18.0757 3.86368ZM11.004 19.2503H10.9993C9.50731 19.2487 8.04199 18.8455 6.76651 18.0894L6.4645 17.9074L3.31893 18.7349L4.1567 15.6694L3.95902 15.3556C3.12674 14.0331 2.68903 12.5011 2.69216 10.9322C2.69216 6.34641 6.41979 2.62349 11.0056 2.62349C13.2287 2.62349 15.3121 3.4895 16.8778 5.0568C18.4514 6.6288 19.3151 8.71853 19.3135 10.9385C19.3135 15.5211 15.5851 19.2503 11.004 19.2503Z" fill="white"/>
<path d="M15.5588 13.0228C15.3063 12.8973 14.0802 12.298 13.8503 12.2094C13.6221 12.127 13.4566 12.0854 13.291 12.338C13.1224 12.5859 12.6431 13.1483 12.4956 13.3154C12.3529 13.4825 12.203 13.5021 11.9552 13.3782C11.7073 13.2527 10.9032 12.9907 9.94701 12.1356C9.20415 11.4704 8.70446 10.6538 8.55778 10.4075C8.41187 10.1581 8.54131 10.0216 8.66839 9.89608C8.78056 9.78391 8.91626 9.60349 9.04256 9.46072C9.16807 9.31247 9.20964 9.20971 9.29514 9.04106C9.37672 8.87711 9.33515 8.73042 9.27396 8.6057C9.20964 8.48175 8.71153 7.24941 8.50051 6.75051C8.30127 6.26495 8.09575 6.3277 7.94121 6.31986C7.79374 6.31201 7.62587 6.31201 7.46349 6.31201C7.29484 6.31201 7.02343 6.3732 6.79516 6.62579C6.56375 6.87524 5.91895 7.47925 5.91895 8.71081C5.91895 9.9408 6.81712 11.1269 6.94263 11.2939C7.06657 11.4595 8.70447 13.983 11.2092 15.0647C11.8069 15.3283 12.2697 15.4781 12.6353 15.5934C13.233 15.7848 13.775 15.7542 14.2073 15.6915C14.6881 15.6177 15.6843 15.089 15.8938 14.5023C16.1009 13.9187 16.1009 13.419 16.0381 13.3146C15.9762 13.2095 15.8106 13.1483 15.5588 13.0228Z" fill="white"/>
</svg>
