<svg width="32" height="32" viewBox="0 0 32 32" fill="none" xmlns="http://www.w3.org/2000/svg">
<g opacity="0.8">
<path d="M15.5457 10.0928C12.5156 10.0928 10.0498 12.532 10.0498 15.5306C10.0498 18.5293 12.5151 20.9685 15.5457 20.9685C18.5758 20.9685 21.0416 18.5293 21.0416 15.5306C21.0416 12.532 18.5758 10.0928 15.5457 10.0928ZM15.5457 18.9664C13.6186 18.9664 12.0514 17.4247 12.0514 15.5306C12.0514 13.6366 13.6186 12.0949 15.5457 12.0949C17.4717 12.0949 19.04 13.6366 19.04 15.5306C19.04 17.4252 17.4728 18.9664 15.5457 18.9664Z" fill="white"/>
<path d="M19.9955 5H11.0607C7.71866 5 5 7.71919 5 11.0607V20.0775C5 23.419 7.71866 26.1382 11.0607 26.1382H19.9955C23.3375 26.1382 26.0557 23.419 26.0557 20.0775V11.0607C26.0557 7.71919 23.3375 5 19.9955 5ZM24.0498 20.0775C24.0498 22.3133 22.2313 24.1323 19.9955 24.1323H11.0607C8.82486 24.1323 7.00533 22.3133 7.00533 20.0775V11.0607C7.00533 8.8254 8.82486 7.00586 11.0607 7.00586H19.9955C22.2313 7.00586 24.0498 8.8254 24.0498 11.0607V20.0775Z" fill="white"/>
<path d="M21.1388 11.1633C21.8529 11.1633 22.4318 10.5843 22.4318 9.8702C22.4318 9.15607 21.8529 8.57715 21.1388 8.57715C20.4246 8.57715 19.8457 9.15607 19.8457 9.8702C19.8457 10.5843 20.4246 11.1633 21.1388 11.1633Z" fill="white"/>
</g>
</svg>
