<svg width="21" height="22" fill="none" xmlns="http://www.w3.org/2000/svg"><path d="M18.076 3.864A9.944 9.944 0 0 0 11.003.927C5.49.927 1.002 5.417 1.002 10.93a9.98 9.98 0 0 0 1.334 4.998L.917 21.112l5.301-1.393a9.958 9.958 0 0 0 4.78 1.217h.005c5.512 0 9.995-4.485 9.997-9.998a9.93 9.93 0 0 0-2.924-7.074ZM11.004 19.25h-.005a8.328 8.328 0 0 1-4.232-1.16l-.303-.183-3.145.828.838-3.066-.198-.313a8.266 8.266 0 0 1-1.267-4.424c0-4.586 3.728-8.309 8.314-8.309a8.24 8.24 0 0 1 5.872 2.434 8.25 8.25 0 0 1 2.436 5.881c0 4.583-3.729 8.312-8.31 8.312Z" fill="#fff"/><path d="M15.559 13.023c-.253-.126-1.479-.725-1.709-.814-.228-.082-.393-.124-.559.129-.169.248-.648.81-.795.977-.143.168-.293.187-.54.063-.249-.125-1.053-.387-2.009-1.242-.743-.666-1.243-1.482-1.39-1.728-.145-.25-.016-.386.111-.512.113-.112.248-.293.375-.435.125-.149.167-.251.252-.42.082-.164.04-.31-.021-.435-.064-.124-.562-1.357-.773-1.855-.2-.486-.405-.423-.56-.431-.147-.008-.315-.008-.478-.008a.91.91 0 0 0-.668.314c-.231.25-.876.853-.876 2.085 0 1.23.898 2.416 1.024 2.583.124.165 1.761 2.689 4.266 3.77a13.1 13.1 0 0 0 1.426.53c.598.19 1.14.16 1.572.098.481-.074 1.477-.603 1.687-1.19.207-.583.207-1.083.144-1.187-.062-.105-.227-.167-.48-.292Z" fill="#fff"/></svg>