<svg width="32" height="32" fill="none" xmlns="http://www.w3.org/2000/svg"><g opacity=".8" fill="#fff"><path d="M15.546 10.093c-3.03 0-5.496 2.439-5.496 5.438 0 2.998 2.465 5.437 5.496 5.437 3.03 0 5.496-2.439 5.496-5.437 0-2.999-2.466-5.438-5.496-5.438Zm0 8.873c-1.927 0-3.495-1.541-3.495-3.435 0-1.894 1.568-3.436 3.495-3.436 1.926 0 3.494 1.542 3.494 3.436s-1.567 3.435-3.494 3.435Z"/><path d="M19.995 5h-8.934A6.068 6.068 0 0 0 5 11.06v9.018a6.068 6.068 0 0 0 6.06 6.06h8.935a6.067 6.067 0 0 0 6.06-6.06V11.06A6.067 6.067 0 0 0 19.996 5Zm4.055 15.078a4.059 4.059 0 0 1-4.055 4.054h-8.934a4.06 4.06 0 0 1-4.056-4.055v-9.016a4.06 4.06 0 0 1 4.056-4.055h8.934a4.06 4.06 0 0 1 4.055 4.055v9.017Z"/><path d="M21.139 11.163a1.293 1.293 0 1 0 0-2.586 1.293 1.293 0 0 0 0 2.586Z"/></g></svg>